<svg width="50" height="50" viewBox="0 0 50 50" fill="none" xmlns="http://www.w3.org/2000/svg">
<rect x="0.5" y="0.5" width="49" height="49" rx="9.5" fill="#252525"/>
<rect x="0.5" y="0.5" width="49" height="49" rx="9.5" stroke="#00CE00"/>
<circle cx="25" cy="25" r="14" fill="#252525" stroke="#00CE00" stroke-width="2"/>
<path d="M19.7017 32V17.4545H25.4403C26.5388 17.4545 27.4763 17.651 28.2528 18.044C29.0341 18.4323 29.6283 18.9839 30.0355 19.6989C30.4474 20.4091 30.6534 21.2448 30.6534 22.206C30.6534 23.1719 30.4451 24.0028 30.0284 24.6989C29.6117 25.3902 29.008 25.9205 28.2173 26.2898C27.4313 26.6591 26.4796 26.8438 25.3622 26.8438H21.5199V24.3722H24.8651C25.4522 24.3722 25.9399 24.2917 26.3281 24.1307C26.7164 23.9697 27.0052 23.7282 27.1946 23.4062C27.3887 23.0843 27.4858 22.6842 27.4858 22.206C27.4858 21.723 27.3887 21.3158 27.1946 20.9844C27.0052 20.6529 26.714 20.402 26.321 20.2315C25.9328 20.0563 25.4427 19.9688 24.8509 19.9688H22.777V32H19.7017ZM27.5568 25.3807L31.1719 32H27.777L24.2401 25.3807H27.5568Z" fill="#00CE00"/>
</svg>
