<svg width="50" height="50" viewBox="0 0 50 50" fill="none" xmlns="http://www.w3.org/2000/svg">
<rect x="0.5" y="0.5" width="49" height="49" rx="9.5" fill="#00CE00"/>
<rect x="0.5" y="0.5" width="49" height="49" rx="9.5" stroke="#00CE00"/>
<circle cx="25" cy="25" r="14" fill="#252525" stroke="#00CE00" stroke-width="2"/>
<path d="M27.0803 17.4545L26.8033 27.6392H24.2038L23.9197 17.4545H27.0803ZM25.5036 32.1847C25.0348 32.1847 24.6323 32.0189 24.2962 31.6875C23.96 31.3513 23.7943 30.9489 23.799 30.4801C23.7943 30.0161 23.96 29.6184 24.2962 29.2869C24.6323 28.9555 25.0348 28.7898 25.5036 28.7898C25.9534 28.7898 26.3487 28.9555 26.6896 29.2869C27.0305 29.6184 27.2034 30.0161 27.2081 30.4801C27.2034 30.7926 27.1205 31.0791 26.9595 31.3395C26.8033 31.5952 26.5973 31.8011 26.3416 31.9574C26.0859 32.1089 25.8066 32.1847 25.5036 32.1847Z" fill="#00CE00"/>
</svg>
